<svg xmlns="http://www.w3.org/2000/svg" width="128" height="128" id="bee">
  <g fill="#231f20">
    <path d="M119.7 71.5c-1.5-5.7-5.2-10.5-10.4-13.5-4.8-2.8-13.6-3.6-21.7-3.7 2.5-3.4 3.8-7.3 3.8-11.3 0-7.3-4.4-13.8-11.1-17.8.2-2.4 1.2-4.6 2.9-6.3 1.9-1.9 4.4-2.9 7.1-2.9s5.2 1 7.1 2.9c.8.8 2 .8 2.8 0 .8-.8.8-2 0-2.8-2.6-2.6-6.2-4.1-9.9-4.1s-7.3 1.5-9.9 4.1c-2 2-3.3 4.5-3.8 7.3C73 21.9 68.9 21 64.5 21s-8.5.9-12.1 2.4c-.5-2.7-1.8-5.2-3.8-7.3-2.6-2.6-6.2-4.1-9.9-4.1s-7.3 1.5-9.9 4.1c-.8.8-.8 2 0 2.8.8.8 2 .8 2.8 0C33.5 17 36 16 38.7 16c2.7 0 5.2 1 7.1 2.9 1.7 1.7 2.7 3.9 2.9 6.3-6.7 4-11.1 10.5-11.1 17.8 0 4 1.3 7.9 3.8 11.3-5.3 0-10.9.3-15.7 1.3-1.1.2-1.8 1.3-1.6 2.4.2 1.1 1.3 1.8 2.4 1.6 9.3-1.9 23.1-1.1 28.5-.7-2.7 10-9.3 30.4-16.1 34.3-4.2 2.4-9.1 3.1-13.9 1.8-4.7-1.3-8.6-4.3-11.1-8.5-3.6-6.2-3.2-13.9.9-19.7.6-.9.4-2.1-.5-2.8-.9-.6-2.1-.4-2.8.5C6.4 71.6 6 81 10.3 88.6c3 5.1 7.8 8.8 13.5 10.4 1.9.5 3.9.8 5.8.8 3.9 0 7.7-1 11.1-3 .2-.1.4-.3.6-.4 4.9 12.3 13.5 19.9 23 19.9 9.3 0 17.9-7.4 22.8-19.4 3.4 1.9 7.1 2.9 10.9 2.9 1.9 0 3.9-.3 5.8-.8 5.7-1.5 10.5-5.2 13.5-10.4 3.2-5.3 4-11.3 2.4-17.1zm-73-17.1c-3.4-3.2-5.2-7.2-5.2-11.4 0-9.9 10.3-18 23-18s23 8.1 23 18c0 4.1-1.8 8.1-5.2 11.3-6.5.2-11.5.7-12 .7-.6.1-1.1.4-1.4.8-.3.5-.4 1.1-.3 1.6.1.5.4 1.6.8 3.1-3.5.6-7.2.5-10.7-.2.4-1.4.6-2.4.8-2.9.1-.6 0-1.2-.3-1.6-.3-.5-.9-.8-1.4-.8-.5 0-5.1-.5-11.1-.6zm35.7 37.7C76.8 94 70.7 95 64.5 95c-6.5 0-12.8-1.1-18.7-3.2 1.7-2.3 3.3-5.2 4.8-8.3 4.5 1 9.2 1.5 14 1.5 4.4 0 8.8-.4 13.1-1.3 1.3 3.1 3 6 4.7 8.4zm-28-18c1.3-3.6 2.4-7 3.2-9.8 2.2.5 4.6.7 6.9.7 2 0 4-.2 6-.5.8 2.8 1.9 6.2 3.2 9.8-6.4 1-13 .9-19.3-.2zM64.5 112c-5.4 0-10.4-3.1-14.5-8.6 4.7 1.1 9.5 1.6 14.5 1.6 4.9 0 9.8-.5 14.5-1.6-4.1 5.5-9.2 8.6-14.5 8.6zM114 86.4c-2.4 4.2-6.4 7.2-11.1 8.5-4.7 1.3-9.6.6-13.9-1.8-6.7-3.9-13.3-24.3-16-34.3 9-.7 27.5-1.3 34.3 2.7 4.2 2.4 7.2 6.4 8.5 11.1 1.3 4.7.7 9.6-1.8 13.8z"></path>
    <path d="M18.1 62.7c.4 0 .8-.1 1.1-.4.4-.3.9-.6 1.4-.9 1-.6 1.3-1.8.7-2.7-.6-1-1.8-1.3-2.7-.7-.6.3-1.1.7-1.7 1.1-.9.6-1.1 1.9-.5 2.8.5.5 1.1.8 1.7.8z"></path>
  </g>
</svg>
