<svg xmlns="http://www.w3.org/2000/svg" viewBox="0 0 64 64" id="fruit-fly">
  <path d="M52.309,10H45.5a33.1,33.1,0,0,0-6.086.582l3.075-1.708a1.007,1.007,0,0,0,.282-.234l5-6L46.232,1.36,41.351,7.216,36.42,9.956a6.006,6.006,0,0,0-1.17-.992A2.959,2.959,0,0,0,34.8,4.615L36.414,3H40V1H36a1,1,0,0,0-.707.293L32.586,4H31.414L28.707,1.293A1,1,0,0,0,28,1H24V3h3.586L29.2,4.615a2.959,2.959,0,0,0-.451,4.349,6.006,6.006,0,0,0-1.17.992l-4.931-2.74L17.768,1.36,16.232,2.64l5,6a1.007,1.007,0,0,0,.282.234l3.074,1.708A33.067,33.067,0,0,0,18.506,10H11.691a11.612,11.612,0,0,0-9.68,5.18,6.022,6.022,0,0,0,2.9,8.978A28.839,28.839,0,0,0,15.064,26c.139,0,.276-.014.414-.019l-2.163,3.243L9.553,31.105l.894,1.79,4-2a1.01,1.01,0,0,0,.385-.34l3.328-4.992a11.164,11.164,0,0,0,4.425-2.471l2.312-2.1.693.433a5.917,5.917,0,0,0-.349,4.247l-2.383.34a1,1,0,0,0-.828,1.233l2.945,11.781L24.02,43.8l1.96.392,1-5a.986.986,0,0,0-.01-.439L24.239,27.833l1.939-.277a6.014,6.014,0,0,0,1.158,1.184L28.823,45.1A3.163,3.163,0,0,0,31,47.83V63h2V47.83A3.163,3.163,0,0,0,35.177,45.1L36.664,28.74a6.014,6.014,0,0,0,1.158-1.184l1.939.277L37.03,38.757a.986.986,0,0,0-.01.439l1,5,1.96-.392-.955-4.78L41.97,27.243a1,1,0,0,0-.828-1.233l-2.383-.34a5.917,5.917,0,0,0-.349-4.247l.693-.433,2.312,2.1a11.164,11.164,0,0,0,4.425,2.471l3.328,4.992a1.01,1.01,0,0,0,.385.34l4,2,.894-1.79-3.762-1.881-2.163-3.243c.138,0,.275.019.414.019a28.839,28.839,0,0,0,10.157-1.842,6.022,6.022,0,0,0,2.9-8.978A11.612,11.612,0,0,0,52.309,10ZM33,20a3.964,3.964,0,0,1,2.487.892L33.713,22H30.287l-1.774-1.108A3.964,3.964,0,0,1,31,20ZM32,10a4,4,0,1,1-4,4A4,4,0,0,1,32,10ZM31,8a1,1,0,0,1,0-2h2a1,1,0,0,1,0,2ZM15.064,24a26.839,26.839,0,0,1-9.455-1.715,4.021,4.021,0,0,1-1.934-6A9.615,9.615,0,0,1,11.691,12h6.815a31.081,31.081,0,0,1,7.59.96A6.04,6.04,0,0,0,26,14a5.96,5.96,0,0,0,.647,2.7l-1.974,1.795L22.53,17.152a1,1,0,0,0-1.362.293L16.93,23.8A9.213,9.213,0,0,1,15.064,24Zm6.175-2.387a9.114,9.114,0,0,1-.935.734l1.989-2.984.842.526Zm5.2-2.02,1.406-1.278c.13.125.265.246.406.359a6.066,6.066,0,0,0-1.509,1.108Zm6.75,25.325a1.19,1.19,0,0,1-2.37,0L29.439,29.787A5.959,5.959,0,0,0,31,30h2a5.959,5.959,0,0,0,1.561-.213ZM37,24a4,4,0,0,1-4,4H31a3.99,3.99,0,0,1-3.7-5.508l2.17,1.356A1,1,0,0,0,30,24h4a1,1,0,0,0,.53-.152l2.17-1.356A3.965,3.965,0,0,1,37,24Zm.262-4.218a6.066,6.066,0,0,0-1.509-1.108c.141-.113.276-.234.406-.359l1.406,1.278Zm5.5,1.831-1.9-1.724.842-.526L43.7,22.347A9.114,9.114,0,0,1,42.761,21.613Zm15.63.672A26.839,26.839,0,0,1,48.936,24a9.213,9.213,0,0,1-1.866-.2l-4.238-6.358a1,1,0,0,0-1.362-.293l-2.143,1.339L37.353,16.7A5.96,5.96,0,0,0,38,14a6.049,6.049,0,0,0-.1-1.04A31.093,31.093,0,0,1,45.5,12h6.812a9.615,9.615,0,0,1,8.016,4.29,4.021,4.021,0,0,1-1.934,6Z"></path>
</svg>
