<svg xmlns="http://www.w3.org/2000/svg" viewBox="0 0 64 64" id="squirrel">
  <path d="M9.26 31.19a4.45 4.45 0 0 0 1.31-.19 9.32 9.32 0 0 0 2.3-1.26c-1.32 3.53-3.08 10.14-.74 16.26 1.74 4.52 5.43 7.87 11 10a5 5 0 0 1 .78.42 3.45 3.45 0 0 0 1.78.68h11.05a.63.63 0 0 0 .51-.28.53.53 0 0 0 .08-.24h7a.61.61 0 0 0 .53-.31.58.58 0 0 0 0-.61A7.2 7.2 0 0 0 42.14 53a6 6 0 0 0 2.64-2.88A5.36 5.36 0 0 0 45 47c3.1-.21 6.74-2 8.71-3.13l3.55 2.59a.58.58 0 0 0 .36.12.63.63 0 0 0 .38-.18 2.38 2.38 0 0 0 .73-2 2.68 2.68 0 0 0-.37-1 15.93 15.93 0 0 1 2.32 1.05.59.59 0 0 0 .47 0 .58.58 0 0 0 .37-.3 3.85 3.85 0 0 0 0-3.69c-.46-.68-1.47-1.45-3.67-1.22a6.43 6.43 0 0 1-3.93-.7c.61-.07 1.34-.2 2.16-.36a14 14 0 0 1 2-.29c1.51 0 2.12-1.58 2.23-2.41a.58.58 0 0 0 0-.26l-2.16-7.12a.46.46 0 0 0-.07-.16 18.38 18.38 0 0 0-4.78-4.27 1.19 1.19 0 0 0-.15-.09A4.64 4.64 0 0 0 52 20.33a.62.62 0 0 0-.67-.15 3.11 3.11 0 0 0-1.82 2.09 4.3 4.3 0 0 0-1.17-2 .62.62 0 0 0-.76 0 5 5 0 0 0-1.83 3.2 12.57 12.57 0 0 0-1.43.7A17.15 17.15 0 0 1 36.3 26H36a30.09 30.09 0 0 0-4.48.07c2.13-2.47 5.78-8 1.43-13A16.75 16.75 0 0 0 20.24 7c-5 0-9.82 2.77-14 7.86C.48 21.77 1.83 26 3.15 28a7.89 7.89 0 0 0 6.11 3.19Zm48.17 13.93-2.62-1.92.29-.2a2.34 2.34 0 0 1 1.07-.14 3.12 3.12 0 0 1 1.35 1.7.88.88 0 0 1-.09.56Zm-6-23.58a3.41 3.41 0 0 1 .51 1.46 6.35 6.35 0 0 0-1.25-.31 2.17 2.17 0 0 1 .72-1.15ZM7.17 15.59c4-4.87 8.42-7.36 13.08-7.42A15.7 15.7 0 0 1 32 13.89c4.74 5.48-1.52 11.63-2.47 12.51a11.82 11.82 0 0 0-6.7 3.71c-3.08 3.54-3.93 9.32-2.51 17.17a.61.61 0 0 0 .6.51H21a.62.62 0 0 0 .49-.72c-1.34-7.47-.59-12.9 2.23-16.15 3.48-4 9.36-3.76 12.18-3.66h.36A18.36 18.36 0 0 0 45 25.21s.26-.15.68-.35a6 6 0 0 0 0 .66.61.61 0 0 0 1.22-.13 5.47 5.47 0 0 1 1-3.76 3.56 3.56 0 0 1 .56 1.67 5.13 5.13 0 0 1-.22 2 .6.6 0 0 0 .41.76.57.57 0 0 0 .18 0 .6.6 0 0 0 .58-.44 6.49 6.49 0 0 0 .3-1.78H50a5 5 0 0 1 2.27.61 2.57 2.57 0 0 1 .38.23A18.56 18.56 0 0 1 57 28.54l2.07 7c-.07.33-.33 1.24-1 1.24a13.63 13.63 0 0 0-2.22.31c-1.09.21-2.91.55-3.37.28a.61.61 0 0 0-.83.85c.07.12 1.8 2.81 6.31 2.34.88-.09 2 0 2.53.7a2.37 2.37 0 0 1 .16 1.85 13.51 13.51 0 0 0-4.09-1.35.62.62 0 0 0-.3 0 3.51 3.51 0 0 0-1.76.24c-.06 0-5.84 3.71-9.92 3.85a11.54 11.54 0 0 0-.85-1.68.61.61 0 1 0-1 .63 9.44 9.44 0 0 1 .9 1.89 4.37 4.37 0 0 1 .06 3c-.82 2.09-3.43 2.86-3.45 2.87a.6.6 0 0 0-.44.65.62.62 0 0 0 .56.55 4.31 4.31 0 0 1 2.76 1.5H36.7a5.74 5.74 0 0 0-3.29-2c2.48-1.3 6.24-3.77 7-7 .44-1.89-.17-3.77-1.81-5.58a.61.61 0 1 0-.9.82c1.37 1.52 1.87 3 1.51 4.48-1 4.22-8.39 7.17-8.46 7.19a.63.63 0 0 0-.38.71.6.6 0 0 0 .65.47 5.4 5.4 0 0 1 4.51 1.44c-2.33 0-7.58.06-9.84 0a2.4 2.4 0 0 1-1.17-.49 5.79 5.79 0 0 0-1-.52c-5.2-2-8.66-5.08-10.26-9.26-3-7.83 1.38-17 1.74-17.72a10.18 10.18 0 0 0 2.51-4.28 3.32 3.32 0 0 0-.83-3.29.6.6 0 0 0-.86 0 .62.62 0 0 0 0 .87 2.12 2.12 0 0 1 .48 2.14c-.59 2.6-3.93 5.84-6.15 6.58-1.41.48-4.45-.3-6-2.57-1.93-2.82-.86-6.96 3.02-11.66Z"></path>
</svg>
